<svg width="250" height="34" viewBox="0 0 250 34" fill="none" xmlns="http://www.w3.org/2000/svg">
<path d="M15.2147 34C5.96656 34 0 27.492 0 17.517C0 7.54204 6.0859 1.15563 15.4534 1.15563C24.7612 1.15563 29.8925 6.87299 29.1168 16.1181H9.78516C10.2625 22.5653 13.8424 26.8229 18.8543 26.8229C22.0166 26.8229 24.8806 25.1807 26.4319 22.4436L29.2958 23.4168C27.3865 30.1682 22.3149 34 15.2147 34ZM9.84483 12.1038H16.766C18.4367 12.1038 19.272 11.2522 19.272 9.48837C19.272 6.93381 17.6014 5.16995 15.2744 5.16995C12.4105 5.16995 10.3818 7.78533 9.84483 12.1038Z" fill="#E6C200"/>
<path d="M35.6838 34L31.6862 23.0519L36.2208 21.7138L37.1158 23.4776C39.2637 27.6744 42.5453 29.9857 46.3043 29.9857C48.8699 29.9857 50.4212 28.7692 50.4212 26.6404C50.4212 24.5116 48.9296 23.4168 44.2756 21.7746L42.0083 20.9839C35.9821 18.8551 33.0585 15.449 33.0585 10.644C33.0585 4.80501 37.2948 1.15563 44.1563 1.15563C46.6026 1.15563 48.8699 1.64222 50.7792 2.55456L54.0011 0H54.5978L58.3567 10.3399L54.4188 11.6172L53.7625 10.4615C51.5548 6.56887 49.1085 5.16995 45.9463 5.16995C43.2613 5.16995 42.068 6.6297 42.068 8.21109C42.068 10.0358 43.4403 10.9481 47.3186 12.2254L49.7649 13.0161C56.3878 15.1449 59.6097 18.6726 59.6097 23.8426C59.6097 30.0465 54.9558 34 47.5572 34C44.3353 34 41.531 33.2093 39.2041 31.5671L36.2804 34H35.6838Z" fill="#E6C200"/>
<path d="M77.4385 34C68.4887 34 62.4625 27.3095 62.4625 17.3345C62.4625 7.66369 68.3097 1.15563 76.9612 1.15563C78.9302 1.15563 80.8395 1.52057 82.2118 2.1288L85.1354 0H85.7321L89.491 10.3399L85.3741 11.7388L84.7774 10.5224C83.2858 7.42039 81.6748 5.77818 78.9898 5.77818C74.7536 5.77818 72.3073 9.24508 72.3073 15.2665C72.3073 22.2612 75.5889 26.8229 80.7202 26.8229C83.7631 26.8229 86.5077 25.1807 87.8204 22.4436L90.6843 23.4168C88.596 30.2898 84.0018 34 77.4385 34Z" fill="#E6C200"/>
<path d="M92.9404 33.0877V29.0733H95.6254C96.222 29.0733 96.5203 28.7692 96.5203 28.161V7.90698C96.5203 7.29875 96.222 6.99463 95.6254 6.99463H92.9404V2.98032L106.186 1.15563V7.48122H106.783C108.274 3.64937 111.138 1.64222 114.36 1.5814L116.508 0H117.105L120.566 12.8945L116.389 14.2326L115.255 11.6172C114.36 9.54919 113.227 8.69767 111.496 8.69767C109.408 8.69767 107.976 9.85331 106.664 12.1646V28.161C106.664 28.7692 106.962 29.0733 107.558 29.0733H111.914V33.0877H92.9404Z" fill="#E6C200"/>
<path d="M137.343 34C128.095 34 122.128 27.492 122.128 17.517C122.128 7.54204 128.214 1.15563 137.581 1.15563C146.889 1.15563 152.021 6.87299 151.245 16.1181H131.913C132.391 22.5653 135.971 26.8229 140.982 26.8229C144.145 26.8229 147.009 25.1807 148.56 22.4436L151.424 23.4168C149.515 30.1682 144.443 34 137.343 34ZM131.973 12.1038H138.894C140.565 12.1038 141.4 11.2522 141.4 9.48837C141.4 6.93381 139.729 5.16995 137.402 5.16995C134.539 5.16995 132.51 7.78533 131.973 12.1038Z" fill="#E6C200"/>
<path d="M155.622 6.44723C155.563 6.20394 155.384 6.08229 155.145 6.08229H152.162V2.06798H164.871L172.329 23.2343H172.925L178.713 6.56887C178.832 6.26476 178.653 6.08229 178.355 6.08229H171.911V2.06798H186.708V6.08229H183.427C183.188 6.08229 183.009 6.20394 182.949 6.44723L173.522 33.0877H165.109L155.622 6.44723Z" fill="#E6C200"/>
<path d="M205.527 34V29.4991H204.93C202.305 32.6011 199.74 34 196.577 34C191.207 34 187.508 30.229 187.508 24.6333C187.508 18.186 192.52 14.1109 200.575 14.1109C202.305 14.1109 203.618 14.2934 205.05 14.9016V14.1109C205.05 8.63685 203.499 6.38641 199.859 6.38641C197.234 6.38641 194.966 7.66369 193.355 10.0358L192.162 11.7996L188.045 10.3399L192.997 0H193.594L197.114 2.49374C199.083 1.5814 201.291 1.15563 203.678 1.15563C211.494 1.15563 215.193 5.65653 215.193 15.0841V27.2487C215.193 27.8569 215.491 28.161 216.088 28.161H218.773V32.1753L205.527 34ZM197.651 23.4168C197.651 26.093 199.203 28.1002 201.351 28.1002C202.663 28.1002 203.976 27.3095 205.05 25.9106V18.7335C204.274 18.3077 203.439 18.1252 202.484 18.1252C199.62 18.1252 197.651 20.3148 197.651 23.4168Z" fill="#E6C200"/>
<path d="M232.827 25.6673L235.035 15.0233H224.593L225.19 12.1646H235.631L237.839 1.52057H240.643L238.436 12.1646H248.817L248.221 15.0233H237.839L235.631 25.6673H232.827Z" fill="#0057B8"/>
<path d="M16.3974 34C7.14921 34 1.18264 27.492 1.18264 17.517C1.18264 7.54204 7.26854 1.15563 16.636 1.15563C25.9439 1.15563 31.0751 6.87299 30.2995 16.1181H10.9678C11.4451 22.5653 15.0251 26.8229 20.037 26.8229C23.1993 26.8229 26.0632 25.1807 27.6145 22.4436L30.4785 23.4168C28.5692 30.1682 23.4976 34 16.3974 34ZM11.0275 12.1038H17.9487C19.6193 12.1038 20.4546 11.2522 20.4546 9.48837C20.4546 6.93381 18.784 5.16995 16.457 5.16995C13.5931 5.16995 11.5645 7.78533 11.0275 12.1038Z" fill="#0057B8"/>
<path d="M36.8664 34L32.8688 23.0519L37.4034 21.7138L38.2984 23.4776C40.4464 27.6744 43.728 29.9857 47.4869 29.9857C50.0525 29.9857 51.6038 28.7692 51.6038 26.6404C51.6038 24.5116 50.1122 23.4168 45.4583 21.7746L43.191 20.9839C37.1647 18.8551 34.2411 15.449 34.2411 10.644C34.2411 4.80501 38.4774 1.15563 45.3389 1.15563C47.7852 1.15563 50.0525 1.64222 51.9618 2.55456L55.1838 0H55.7804L59.5394 10.3399L55.6014 11.6172L54.9451 10.4615C52.7375 6.56887 50.2912 5.16995 47.1289 5.16995C44.444 5.16995 43.2506 6.6297 43.2506 8.21109C43.2506 10.0358 44.623 10.9481 48.5012 12.2254L50.9475 13.0161C57.5704 15.1449 60.7923 18.6726 60.7923 23.8426C60.7923 30.0465 56.1384 34 48.7399 34C45.5179 34 42.7137 33.2093 40.3867 31.5671L37.4631 34H36.8664Z" fill="#0057B8"/>
<path d="M78.6212 34C69.6713 34 63.6451 27.3095 63.6451 17.3345C63.6451 7.66369 69.4923 1.15563 78.1439 1.15563C80.1128 1.15563 82.0221 1.52057 83.3944 2.1288L86.318 0H86.9147L90.6736 10.3399L86.5567 11.7388L85.9601 10.5224C84.4684 7.42039 82.8574 5.77818 80.1725 5.77818C75.9362 5.77818 73.4899 9.24508 73.4899 15.2665C73.4899 22.2612 76.7715 26.8229 81.9028 26.8229C84.9457 26.8229 87.6904 25.1807 89.003 22.4436L91.867 23.4168C89.7787 30.2898 85.1844 34 78.6212 34Z" fill="#0057B8"/>
<path d="M94.1231 33.0877V29.0733H96.808C97.4047 29.0733 97.703 28.7692 97.703 28.161V7.90698C97.703 7.29875 97.4047 6.99463 96.808 6.99463H94.1231V2.98032L107.369 1.15563V7.48122H107.965C109.457 3.64937 112.321 1.64222 115.543 1.5814L117.691 0H118.288L121.748 12.8945L117.572 14.2326L116.438 11.6172C115.543 9.54919 114.409 8.69767 112.679 8.69767C110.591 8.69767 109.159 9.85331 107.846 12.1646V28.161C107.846 28.7692 108.144 29.0733 108.741 29.0733H113.097V33.0877H94.1231Z" fill="#0057B8"/>
<path d="M138.525 34C129.277 34 123.311 27.492 123.311 17.517C123.311 7.54204 129.397 1.15563 138.764 1.15563C148.072 1.15563 153.203 6.87299 152.428 16.1181H133.096C133.573 22.5653 137.153 26.8229 142.165 26.8229C145.327 26.8229 148.191 25.1807 149.743 22.4436L152.607 23.4168C150.697 30.1682 145.626 34 138.525 34ZM133.156 12.1038H140.077C141.747 12.1038 142.583 11.2522 142.583 9.48837C142.583 6.93381 140.912 5.16995 138.585 5.16995C135.721 5.16995 133.693 7.78533 133.156 12.1038Z" fill="#0057B8"/>
<path d="M156.805 6.44723C156.745 6.20394 156.566 6.08229 156.328 6.08229H153.344V2.06798H166.053L173.511 23.2343H174.108L179.896 6.56887C180.015 6.26476 179.836 6.08229 179.538 6.08229H173.094V2.06798H187.891V6.08229H184.609C184.371 6.08229 184.192 6.20394 184.132 6.44723L174.705 33.0877H166.292L156.805 6.44723Z" fill="#0057B8"/>
<path d="M206.71 34V29.4991H206.113C203.488 32.6011 200.922 34 197.76 34C192.39 34 188.691 30.229 188.691 24.6333C188.691 18.186 193.703 14.1109 201.758 14.1109C203.488 14.1109 204.8 14.2934 206.232 14.9016V14.1109C206.232 8.63685 204.681 6.38641 201.042 6.38641C198.416 6.38641 196.149 7.66369 194.538 10.0358L193.345 11.7996L189.228 10.3399L194.18 0H194.777L198.297 2.49374C200.266 1.5814 202.474 1.15563 204.86 1.15563C212.676 1.15563 216.376 5.65653 216.376 15.0841V27.2487C216.376 27.8569 216.674 28.161 217.271 28.161H219.956V32.1753L206.71 34ZM198.834 23.4168C198.834 26.093 200.385 28.1002 202.533 28.1002C203.846 28.1002 205.158 27.3095 206.232 25.9106V18.7335C205.457 18.3077 204.621 18.1252 203.667 18.1252C200.803 18.1252 198.834 20.3148 198.834 23.4168Z" fill="#0057B8"/>
<path d="M234.01 25.6673L236.217 15.0233H225.776L226.372 12.1646H236.814L239.022 1.52057H241.826L239.618 12.1646H250L249.403 15.0233H239.022L236.814 25.6673H234.01Z" fill="#0057B8"/>
</svg>
