<svg width="75" height="75" viewBox="0 0 75 75" fill="none" xmlns="http://www.w3.org/2000/svg">
<g clip-path="url(#clip0_1_12383)">
<path d="M34.375 46.875H40.625V53.125H34.375V46.875ZM34.375 21.875H40.625V40.625H34.375V21.875ZM37.4688 6.25C20.2187 6.25 6.25 20.25 6.25 37.5C6.25 54.75 20.2187 68.75 37.4688 68.75C54.75 68.75 68.75 54.75 68.75 37.5C68.75 20.25 54.75 6.25 37.4688 6.25ZM37.5 62.5C23.6875 62.5 12.5 51.3125 12.5 37.5C12.5 23.6875 23.6875 12.5 37.5 12.5C51.3125 12.5 62.5 23.6875 62.5 37.5C62.5 51.3125 51.3125 62.5 37.5 62.5Z" fill="#EC5C52"/>
</g>
<defs>
<clipPath id="clip0_1_12383">
<rect width="75" height="75" fill="white"/>
</clipPath>
</defs>
</svg>
