<svg width="118" height="72" viewBox="0 0 118 72" fill="none" xmlns="http://www.w3.org/2000/svg">
<path d="M28 71.5C12.5 71.5 2.5 60.8 2.5 44.4C2.5 28 12.7 17.5 28.4 17.5C44 17.5 52.6 26.9 51.3 42.1H18.9C19.7 52.7 25.7 59.7 34.1 59.7C39.4 59.7 44.2 57 46.8 52.5L51.6 54.1C48.4 65.2 39.9 71.5 28 71.5ZM19 35.5H30.6C33.4 35.5 34.8 34.1 34.8 31.2C34.8 27 32 24.1 28.1 24.1C23.3 24.1 19.9 28.4 19 35.5ZM76.6063 57.8L80.3062 40.3H62.8063L63.8063 35.6H81.3063L85.0063 18.1H89.7063L86.0063 35.6H103.406L102.406 40.3H85.0063L81.3063 57.8H76.6063Z" fill="#E6C200"/>
<path d="M30 71.5C14.5 71.5 4.5 60.8 4.5 44.4C4.5 28 14.7 17.5 30.4 17.5C46 17.5 54.6 26.9 53.3 42.1H20.9C21.7 52.7 27.7 59.7 36.1 59.7C41.4 59.7 46.2 57 48.8 52.5L53.6 54.1C50.4 65.2 41.9 71.5 30 71.5ZM21 35.5H32.6C35.4 35.5 36.8 34.1 36.8 31.2C36.8 27 34 24.1 30.1 24.1C25.3 24.1 21.9 28.4 21 35.5ZM78.6063 57.8L82.3062 40.3H64.8063L65.8063 35.6H83.3063L87.0063 18.1H91.7063L88.0063 35.6H105.406L104.406 40.3H87.0063L83.3063 57.8H78.6063Z" fill="#0057B8"/>
</svg>
