<svg width="350" height="48" viewBox="0 0 350 48" fill="none" xmlns="http://www.w3.org/2000/svg">
<path d="M21.3006 48C8.35319 48 0 38.8122 0 24.7299C0 10.6476 8.52025 1.63148 21.6348 1.63148C34.6657 1.63148 41.8495 9.70304 40.7636 22.7549H13.6992C14.3675 31.8569 19.3794 37.8676 26.3961 37.8676C30.8233 37.8676 34.8328 35.5492 37.0046 31.6852L41.0142 33.059C38.3411 42.5903 31.2409 48 21.3006 48ZM13.7828 17.0877H23.4725C25.8114 17.0877 26.9808 15.8855 26.9808 13.3953C26.9808 9.78891 24.6419 7.29875 21.3842 7.29875C17.3746 7.29875 14.5345 10.9911 13.7828 17.0877Z" fill="#E6C200"/>
<path d="M49.9573 48L44.3607 32.5438L50.7091 30.6547L51.9621 33.1449C54.9692 39.0698 59.5635 42.3327 64.826 42.3327C68.4178 42.3327 70.5897 40.6154 70.5897 37.61C70.5897 34.6046 68.5014 33.059 61.9859 30.7406L58.8117 29.6243C50.3749 26.619 46.2819 21.8104 46.2819 15.0268C46.2819 6.78354 52.2127 1.63148 61.8188 1.63148C65.2436 1.63148 68.4178 2.31843 71.0909 3.60644L75.6016 0H76.4369L81.6994 14.5975L76.1863 16.4007L75.2674 14.7692C72.1768 9.2737 68.752 7.29875 64.3248 7.29875C60.5658 7.29875 58.8952 9.35957 58.8952 11.5921C58.8952 14.1682 60.8164 15.4562 66.246 17.2594L69.6708 18.3757C78.9428 21.381 83.4536 26.3614 83.4536 33.6601C83.4536 42.4186 76.9381 48 66.5801 48C62.0694 48 58.1434 46.8837 54.8857 44.5653L50.7926 48H49.9573Z" fill="#E6C200"/>
<path d="M108.414 48C95.8842 48 87.4474 38.5546 87.4474 24.4723C87.4474 10.8193 95.6336 1.63148 107.746 1.63148C110.502 1.63148 113.175 2.14669 115.096 3.00537L119.19 0H120.025L125.287 14.5975L119.524 16.5725L118.688 14.8551C116.6 10.4758 114.345 8.15742 110.586 8.15742C104.655 8.15742 101.23 13.0519 101.23 21.5528C101.23 31.4275 105.824 37.8676 113.008 37.8676C117.268 37.8676 121.111 35.5492 122.948 31.6852L126.958 33.059C124.034 42.7621 117.602 48 108.414 48Z" fill="#E6C200"/>
<path d="M130.117 46.712V41.0447H133.876C134.711 41.0447 135.128 40.6154 135.128 39.7567V11.1628C135.128 10.3041 134.711 9.87478 133.876 9.87478H130.117V4.20751L148.661 1.63148V10.5617H149.496C151.584 5.15206 155.594 2.31843 160.105 2.23256L163.112 0H163.947L168.792 18.2039L162.945 20.093L161.357 16.4007C160.105 13.4812 158.517 12.2791 156.095 12.2791C153.171 12.2791 151.167 13.9106 149.329 17.1735V39.7567C149.329 40.6154 149.747 41.0447 150.582 41.0447H156.68V46.712H130.117Z" fill="#E6C200"/>
<path d="M192.28 48C179.333 48 170.979 38.8122 170.979 24.7299C170.979 10.6476 179.5 1.63148 192.614 1.63148C205.645 1.63148 212.829 9.70304 211.743 22.7549H184.679C185.347 31.8569 190.359 37.8676 197.375 37.8676C201.803 37.8676 205.812 35.5492 207.984 31.6852L211.993 33.059C209.32 42.5903 202.22 48 192.28 48ZM184.762 17.0877H194.452C196.791 17.0877 197.96 15.8855 197.96 13.3953C197.96 9.78891 195.621 7.29875 192.363 7.29875C188.354 7.29875 185.514 10.9911 184.762 17.0877Z" fill="#E6C200"/>
<path d="M217.871 9.10197C217.788 8.7585 217.537 8.58676 217.203 8.58676H213.027V2.9195H230.819L241.26 32.8014H242.096L250.198 9.2737C250.365 8.84437 250.115 8.58676 249.697 8.58676H240.676V2.9195H261.391V8.58676H256.797C256.463 8.58676 256.213 8.7585 256.129 9.10197L242.931 46.712H231.153L217.871 9.10197Z" fill="#E6C200"/>
<path d="M287.738 48V41.6458H286.903C283.227 46.025 279.635 48 275.208 48C267.69 48 262.511 42.6762 262.511 34.7764C262.511 25.6744 269.528 19.9213 280.805 19.9213C283.227 19.9213 285.065 20.1789 287.07 21.0376V19.9213C287.07 12.1932 284.898 9.0161 279.802 9.0161C276.127 9.0161 272.953 10.8193 270.697 14.1682L269.027 16.6583L263.263 14.5975L270.196 0H271.032L275.96 3.52057C278.717 2.23256 281.807 1.63148 285.148 1.63148C296.091 1.63148 301.27 7.98569 301.27 21.2952V38.4687C301.27 39.3274 301.688 39.7567 302.523 39.7567H306.282V45.424L287.738 48ZM276.712 33.059C276.712 36.8372 278.884 39.6708 281.891 39.6708C283.728 39.6708 285.566 38.5546 287.07 36.5796V26.4472C285.984 25.8462 284.814 25.5886 283.478 25.5886C279.468 25.5886 276.712 28.6798 276.712 33.059Z" fill="#E6C200"/>
<path d="M325.958 36.2361L329.048 21.2093H314.43L315.266 17.1735H329.884L332.974 2.14669H336.9L333.81 17.1735H348.344L347.509 21.2093H332.974L329.884 36.2361H325.958Z" fill="#0057B8"/>
<path d="M22.9563 48C10.0089 48 1.6557 38.8122 1.6557 24.7299C1.6557 10.6476 10.176 1.63148 23.2905 1.63148C36.3214 1.63148 43.5052 9.70304 42.4193 22.7549H15.3549C16.0232 31.8569 21.0351 37.8676 28.0518 37.8676C32.479 37.8676 36.4885 35.5492 38.6603 31.6852L42.6699 33.059C39.9968 42.5903 32.8966 48 22.9563 48ZM15.4385 17.0877H25.1282C27.4671 17.0877 28.6365 15.8855 28.6365 13.3953C28.6365 9.78891 26.2976 7.29875 23.0399 7.29875C19.0303 7.29875 16.1902 10.9911 15.4385 17.0877Z" fill="#0057B8"/>
<path d="M51.613 48L46.0164 32.5438L52.3648 30.6547L53.6178 33.1449C56.6249 39.0698 61.2192 42.3327 66.4817 42.3327C70.0735 42.3327 72.2454 40.6154 72.2454 37.61C72.2454 34.6046 70.1571 33.059 63.6416 30.7406L60.4674 29.6243C52.0306 26.619 47.9376 21.8104 47.9376 15.0268C47.9376 6.78354 53.8684 1.63148 63.4745 1.63148C66.8993 1.63148 70.0735 2.31843 72.7466 3.60644L77.2573 0H78.0926L83.3551 14.5975L77.842 16.4007L76.9231 14.7692C73.8325 9.2737 70.4077 7.29875 65.9805 7.29875C62.2215 7.29875 60.5509 9.35957 60.5509 11.5921C60.5509 14.1682 62.4721 15.4562 67.9017 17.2594L71.3265 18.3757C80.5985 21.381 85.1093 26.3614 85.1093 33.6601C85.1093 42.4186 78.5938 48 68.2358 48C63.7251 48 59.7991 46.8837 56.5414 44.5653L52.4483 48H51.613Z" fill="#0057B8"/>
<path d="M110.07 48C97.5399 48 89.1031 38.5546 89.1031 24.4723C89.1031 10.8193 97.2893 1.63148 109.401 1.63148C112.158 1.63148 114.831 2.14669 116.752 3.00537L120.845 0H121.681L126.943 14.5975L121.179 16.5725L120.344 14.8551C118.256 10.4758 116 8.15742 112.241 8.15742C106.311 8.15742 102.886 13.0519 102.886 21.5528C102.886 31.4275 107.48 37.8676 114.664 37.8676C118.924 37.8676 122.766 35.5492 124.604 31.6852L128.614 33.059C125.69 42.7621 119.258 48 110.07 48Z" fill="#0057B8"/>
<path d="M131.772 46.712V41.0447H135.531C136.367 41.0447 136.784 40.6154 136.784 39.7567V11.1628C136.784 10.3041 136.367 9.87478 135.531 9.87478H131.772V4.20751L150.316 1.63148V10.5617H151.152C153.24 5.15206 157.249 2.31843 161.76 2.23256L164.767 0H165.603L170.448 18.2039L164.6 20.093L163.013 16.4007C161.76 13.4812 160.173 12.2791 157.751 12.2791C154.827 12.2791 152.822 13.9106 150.985 17.1735V39.7567C150.985 40.6154 151.402 41.0447 152.238 41.0447H158.335V46.712H131.772Z" fill="#0057B8"/>
<path d="M193.936 48C180.988 48 172.635 38.8122 172.635 24.7299C172.635 10.6476 181.155 1.63148 194.27 1.63148C207.301 1.63148 214.484 9.70304 213.399 22.7549H186.334C187.003 31.8569 192.014 37.8676 199.031 37.8676C203.458 37.8676 207.468 35.5492 209.64 31.6852L213.649 33.059C210.976 42.5903 203.876 48 193.936 48ZM186.418 17.0877H196.107C198.446 17.0877 199.616 15.8855 199.616 13.3953C199.616 9.78891 197.277 7.29875 194.019 7.29875C190.01 7.29875 187.17 10.9911 186.418 17.0877Z" fill="#0057B8"/>
<path d="M219.527 9.10197C219.444 8.7585 219.193 8.58676 218.859 8.58676H214.682V2.9195H232.475L242.916 32.8014H243.751L251.854 9.2737C252.021 8.84437 251.77 8.58676 251.353 8.58676H242.331V2.9195H263.047V8.58676H258.453C258.119 8.58676 257.868 8.7585 257.785 9.10197L244.587 46.712H232.809L219.527 9.10197Z" fill="#0057B8"/>
<path d="M289.394 48V41.6458H288.558C284.883 46.025 281.291 48 276.864 48C269.346 48 264.167 42.6762 264.167 34.7764C264.167 25.6744 271.184 19.9213 282.461 19.9213C284.883 19.9213 286.721 20.1789 288.725 21.0376V19.9213C288.725 12.1932 286.554 9.0161 281.458 9.0161C277.783 9.0161 274.609 10.8193 272.353 14.1682L270.683 16.6583L264.919 14.5975L271.852 0H272.687L277.616 3.52057C280.372 2.23256 283.463 1.63148 286.804 1.63148C297.747 1.63148 302.926 7.98569 302.926 21.2952V38.4687C302.926 39.3274 303.344 39.7567 304.179 39.7567H307.938V45.424L289.394 48ZM278.367 33.059C278.367 36.8372 280.539 39.6708 283.546 39.6708C285.384 39.6708 287.222 38.5546 288.725 36.5796V26.4472C287.64 25.8462 286.47 25.5886 285.134 25.5886C281.124 25.5886 278.367 28.6798 278.367 33.059Z" fill="#0057B8"/>
<path d="M327.613 36.2361L330.704 21.2093H316.086L316.921 17.1735H331.539L334.63 2.14669H338.556L335.465 17.1735H350L349.165 21.2093H334.63L331.539 36.2361H327.613Z" fill="#0057B8"/>
</svg>
