<svg width="35" height="35" viewBox="0 0 35 35" fill="none" xmlns="http://www.w3.org/2000/svg">
<g clip-path="url(#clip0_1188_3425)">
<path d="M24.0623 17.5C26.0748 17.5 27.6936 15.8667 27.6936 13.8542C27.6936 11.8417 26.0748 10.2084 24.0623 10.2084C22.0498 10.2084 20.4165 11.8417 20.4165 13.8542C20.4165 15.8667 22.0498 17.5 24.0623 17.5ZM13.1248 16.0417C15.5457 16.0417 17.4853 14.0875 17.4853 11.6667C17.4853 9.24585 15.5457 7.29169 13.1248 7.29169C10.704 7.29169 8.74984 9.24585 8.74984 11.6667C8.74984 14.0875 10.704 16.0417 13.1248 16.0417ZM24.0623 20.4167C21.3936 20.4167 16.0415 21.7584 16.0415 24.4271V27.7084H32.0832V24.4271C32.0832 21.7584 26.7311 20.4167 24.0623 20.4167ZM13.1248 18.9584C9.72692 18.9584 2.9165 20.6646 2.9165 24.0625V27.7084H13.1248V24.4271C13.1248 23.1875 13.6061 21.0146 16.5811 19.3667C15.3123 19.1042 14.0873 18.9584 13.1248 18.9584Z" fill="#0057B8"/>
</g>
<defs>
<clipPath id="clip0_1188_3425">
<rect width="35" height="35" fill="white"/>
</clipPath>
</defs>
</svg>
