<svg width="103" height="54" viewBox="0 0 103 54" fill="none" xmlns="http://www.w3.org/2000/svg">
<path d="M74.1063 40.3L77.8063 22.8H60.3063L61.3063 18.1H78.8063L82.5062 0.599998H87.2063L83.5062 18.1H100.906L99.9062 22.8H82.5062L78.8063 40.3H74.1063Z" fill="#E6C200"/>
<path d="M25.5 54C10 54 0 43.3 0 26.9C0 10.5 10.2 0 25.9 0C41.5 0 50.1 9.4 48.8 24.6H16.4C17.2 35.2 23.2 42.2 31.6 42.2C36.9 42.2 41.7 39.5 44.3 35L49.1 36.6C45.9 47.7 37.4 54 25.5 54ZM16.5 18H28.1C30.9 18 32.3 16.6 32.3 13.7C32.3 9.5 29.5 6.6 25.6 6.6C20.8 6.6 17.4 10.9 16.5 18Z" fill="#E6C200"/>
<path d="M76.1063 40.3L79.8063 22.8H62.3063L63.3063 18.1H80.8063L84.5062 0.599998H89.2063L85.5062 18.1H102.906L101.906 22.8H84.5062L80.8063 40.3H76.1063Z" fill="#0054B3"/>
<path d="M27.5 54C12 54 2 43.3 2 26.9C2 10.5 12.2 0 27.9 0C43.5 0 52.1 9.4 50.8 24.6H18.4C19.2 35.2 25.2 42.2 33.6 42.2C38.9 42.2 43.7 39.5 46.3 35L51.1 36.6C47.9 47.7 39.4 54 27.5 54ZM18.5 18H30.1C32.9 18 34.3 16.6 34.3 13.7C34.3 9.5 31.5 6.6 27.6 6.6C22.8 6.6 19.4 10.9 18.5 18Z" fill="#0054B3"/>
</svg>
